PathFileType	4	(X/Y/Z)	SUBJ11_1_walk_RCNL2025.trc
DataRate	CameraRate	NumFrames	NumMarkers	Units	OrigDataRate	OrigDataStartFrame	OrigNumFrames
100	100	7	25	mm	100	167	443
Frame#	Time	R_Shoulder			L_Shoulder			C7			J_Notch			R_Elbow			L_Elbow			R_Wrist			L_Wrist			R_Asis			L_Asis			Sacral			Thoracic			Sternum			R_Thigh_Lateral			R_Knee_Lateral			R_Shank_Lateral			R_Ankle_Lateral			R_Heel			R_Toe			L_Thigh_Lateral			L_Knee_Lateral			L_Shank_Lateral			L_Ankle_Lateral			L_Heel			L_Toe		
		X1	Y1	Z1	X2	Y2	Z2	X3	Y3	Z3	X4	Y4	Z4	X5	Y5	Z5	X6	Y6	Z6	X7	Y7	Z7	X8	Y8	Z8	X9	Y9	Z9	X10	Y10	Z10	X11	Y11	Z11	X12	Y12	Z12	X13	Y13	Z13	X14	Y14	Z14	X15	Y15	Z15	X16	Y16	Z16	X17	Y17	Z17	X18	Y18	Z18	X19	Y19	Z19	X20	Y20	Z20	X21	Y21	Z21	X22	Y22	Z22	X23	Y23	Z23	X24	Y24	Z24	X25	Y25	Z25
167	1.66000000	-1540.246948	1450.910522	176.288712	-1540.223877	1439.754272	-223.194870	-1588.200317	1491.660278	-23.500746	-1437.920288	1392.827393	-14.954486	-1617.116943	1113.709351	257.975342	-1525.301514	1093.550293	-299.644562	-1575.539856	854.333649	243.818909	-1383.484863	872.771027	-258.100731	-1464.079590	972.634277	135.163300	-1472.730469	971.344849	-154.919846	-1646.616821	991.051819	-9.348596	-1661.131714	1309.045166	-21.303942	-1371.799805	1194.298340	-12.015977	-1455.194092	634.242371	209.941711	-1423.466919	486.595459	154.966873	-1528.639526	311.319611	179.612915	-1638.848389	146.661652	106.287003	-1691.428711	160.725128	50.432613	-1533.273560	61.582058	86.184265	-1551.360718	622.864075	-222.979935	-1530.716431	466.633514	-140.970169	-1546.929077	255.584000	-177.729324	-1561.675293	60.853088	-109.147949	-1618.810669	53.999542	-59.906799	-1427.859985	43.210705	-72.714363
168	1.67000000	-1530.112061	1450.508057	176.073364	-1529.079834	1440.637695	-223.353607	-1577.589111	1491.797974	-23.832260	-1427.401733	1392.815552	-15.149469	-1610.533447	1113.722290	256.589874	-1508.521729	1095.257935	-301.673767	-1568.282288	854.479706	241.506172	-1362.338684	877.624023	-258.814964	-1453.267334	972.734070	133.987961	-1463.652832	971.453674	-155.986298	-1636.436157	991.361145	-9.336304	-1650.624512	1309.245728	-22.057976	-1361.461914	1194.184204	-12.753650	-1439.708496	635.705811	208.893692	-1405.889038	488.165222	153.112747	-1504.731079	308.722900	177.728134	-1606.920776	139.127884	104.296738	-1659.783203	150.481354	48.001499	-1497.196045	59.306976	85.722359	-1546.437012	623.219971	-223.288040	-1529.395996	466.712494	-140.854309	-1546.956055	255.682846	-177.798874	-1561.830566	60.873478	-109.190811	-1618.881470	54.078434	-59.886307	-1427.949707	43.253159	-72.870361
169	1.68000000	-1519.913086	1449.849609	175.886612	-1517.928467	1441.227661	-223.469437	-1566.921631	1491.687988	-24.127577	-1416.862427	1392.505005	-15.349427	-1603.758911	1113.492432	255.250931	-1491.797974	1096.768188	-303.600647	-1560.834229	854.380280	239.269913	-1341.510498	882.223785	-259.538979	-1442.516235	972.506226	132.896851	-1454.794312	971.312134	-157.084702	-1626.260376	991.397339	-9.289186	-1640.118896	1309.213501	-22.703663	-1351.107178	1193.780884	-13.482409	-1424.786011	636.772522	207.702057	-1388.859497	489.517822	151.206497	-1481.190918	306.173126	175.890411	-1574.578857	131.663330	102.395889	-1627.516968	140.201050	45.578789	-1460.906372	57.283028	85.515106	-1541.249146	623.400574	-223.615906	-1527.905640	466.763031	-140.723465	-1546.857910	255.775406	-177.831741	-1561.962280	60.897385	-109.194481	-1618.931274	54.165310	-59.824539	-1428.030640	43.286804	-73.007072
170	1.69000000	-1509.648926	1448.958130	175.718384	-1506.760742	1441.544312	-223.535645	-1556.188965	1491.344238	-24.381603	-1406.296265	1391.902100	-15.547397	-1596.713867	1113.032471	253.958069	-1475.164795	1098.099121	-305.410370	-1553.195862	854.036438	237.095627	-1321.026794	886.565277	-260.267281	-1431.830933	971.961975	131.900925	-1446.025879	970.929932	-158.187454	-1616.075684	991.161255	-9.222546	-1629.613159	1308.959839	-23.247690	-1340.738525	1193.103027	-14.190280	-1410.462891	637.408508	206.376328	-1372.360962	490.598480	149.269150	-1457.853271	303.564667	174.103958	-1541.822876	124.335014	100.590569	-1594.687988	130.003113	43.247063	-1424.443115	55.593704	85.353539	-1535.804688	623.411926	-223.968643	-1526.238770	466.791595	-140.592712	-1546.641357	255.868088	-177.844910	-1562.070679	60.925228	-109.161774	-1618.962402	54.264969	-59.718201	-1428.097290	43.309708	-73.126205
171	1.70000000	-1499.320312	1447.859131	175.560425	-1495.566650	1441.610718	-223.544022	-1545.385742	1490.781494	-24.591095	-1395.696533	1391.016724	-15.731402	-1589.335449	1112.359131	252.714340	-1458.659302	1099.266724	-307.092896	-1545.362000	853.454254	234.974083	-1300.915649	890.645020	-260.992828	-1421.214966	971.116089	131.014633	-1437.212402	970.317078	-159.259598	-1605.869995	990.657898	-9.153768	-1619.103027	1308.497070	-23.699471	-1330.359375	1192.166382	-14.858444	-1396.742310	637.594543	204.945602	-1356.366333	491.350281	147.318909	-1434.528320	300.811096	172.370102	-1508.650146	117.211197	98.877457	-1561.354004	119.992287	41.076946	-1387.837646	54.324245	85.037148	-1530.124390	623.259521	-224.344498	-1524.378784	466.800171	-140.477036	-1546.301392	255.965622	-177.854797	-1562.153198	60.956486	-109.094543	-1618.978882	54.383488	-59.568134	-1428.143188	43.321095	-73.229675
172	1.71000000	-1488.928345	1446.577148	175.408676	-1484.340942	1441.449219	-223.487076	-1534.506592	1490.012573	-24.752720	-1385.054932	1389.861206	-15.887069	-1581.582520	1111.488770	251.525162	-1442.316772	1100.279053	-308.642914	-1537.323730	852.643890	232.903030	-1281.203308	894.460999	-261.706871	-1410.669800	969.987244	130.252716	-1428.239746	969.484375	-160.266861	-1595.631958	989.896179	-9.101689	-1608.580688	1307.838623	-24.071037	-1319.972656	1190.986450	-15.463984	-1383.594604	637.327393	203.453171	-1340.847290	491.720856	145.369568	-1411.037964	297.863647	170.691040	-1475.062256	110.364845	97.250374	-1527.572510	110.261940	39.129314	-1351.119507	53.558792	84.385246	-1524.232666	622.950867	-224.735092	-1522.291138	466.783844	-140.386032	-1545.815552	256.067139	-177.873093	-1562.203857	60.989155	-108.993248	-1618.980957	54.527294	-59.379562	-1428.162354	43.320187	-73.317451
173	1.72000000	-1478.473877	1445.133667	175.264832	-1473.074951	1441.078735	-223.357544	-1523.543823	1489.048340	-24.863440	-1374.362183	1388.450806	-15.999190	-1573.437378	1110.434570	250.396652	-1426.170654	1101.134521	-310.061005	-1529.071167	851.617798	230.885574	-1261.912170	898.010925	-262.399902	-1400.193604	968.596802	129.626495	-1419.026489	968.443481	-161.180069	-1585.350586	988.889648	-9.084078	-1598.037231	1306.998047	-24.376568	-1309.580566	1189.577148	-15.983624	-1370.969238	636.616821	201.948013	-1325.779907	491.670685	143.431274	-1387.245850	294.721161	169.072006	-1441.073608	103.875908	95.706955	-1493.401978	100.896103	37.457806	-1314.328491	53.380810	83.252350	-1518.154663	622.500366	-225.128738	-1519.921143	466.731323	-140.323563	-1545.140137	256.162445	-177.902206	-1562.212036	61.020050	-108.857277	-1618.965210	54.702297	-59.161133	-1428.150024	43.306320	-73.386658
